# xmcd
# Track frame offsets:
# 150
# 23458
# 45988
# 54936
# 75009
# 79742
# 97075
# 113770
# 144558
#
# Disc length: 2189 seconds
# Revision: 0
# Processed by: cddbd v1.5.1PL2 Copyright (c) Steve Scherf et al.
# Submitted via: VisiTrax 2.9.10.228 - For more info visit www.synapsa.com
#
DISCID=59088b09
DTITLE=Joe Walsh - So What
DYEAR=1974
DGENRE=Rock
TTITLE0=Welcome to the club
TTITLE1=Falling down
TTITLE2=Pavane of The Sleeping Beauty
TTITLE3=Time out
TTITLE4=All night laundry mat blues
TTITLE5=Turn to stone
TTITLE6=Help me through the night
TTITLE7=County fair
TTITLE8=Song for Emma
EXTD=
EXTT0=
EXTT1=
EXTT2=
EXTT3=
EXTT4=
EXTT5=
EXTT6=
EXTT7=
EXTT8=
PLAYORDER=
